<svg viewBox="0 0 178 53" fill="none" xmlns="http://www.w3.org/2000/svg"><path d="M27.837 1.697h6.465l-5.737 33.5H22.1l5.737-33.5zM62.575 12.438c.71-1.023 1.498-1.792 2.364-2.304.867-.51 1.541-.767 2.697-.767.761 0 1.313.03 1.654.087 1.645.293 2.705 1.141 3.178 2.545.473 1.404.434 3.656-.12 6.756l-1.444 8.094c-.574 3.217-1.508 5.557-2.8 7.02-1.293 1.462-2.854 2.193-4.684 2.193-1.214 0-1.656-.438-2.48-.95-.824-.51-1.489-1.68-1.961-2.967l-.546 3.193h-6.078L58.37 1.646h6.132l-1.927 10.792zm-.902 6.233l-1.397 7.719c-.206 1.152-.155 2.057.15 2.716.306.658.744 1.005 1.315 1.04.401-.011.804-.167 1.204-.466.4-.3.752-.735 1.054-1.306.302-.57.582-1.473.716-2.226l1.334-7.477c.177-.988.17-1.753-.022-2.294a1.767 1.767 0 00-1.651-1.148c-.66 0-1.293.38-1.8.944-.508.564-.734 1.557-.903 2.498M74.658 17.904c.277-1.55.953-3.233 1.533-4.316.582-1.081 1.574-1.916 2.4-2.523.825-.606 1.79-1.049 2.892-1.326 1.104-.278 2.36-.431 3.77-.461 3.028 0 5.128.56 6.296 1.678 1.168 1.119 1.547 2.834 1.135 5.143l-2.73 15.29c-.151.847-.247 1.55-.288 2.104a9.554 9.554 0 00.066 1.844h-6.358c-.081-.366-.096-2.258-.044-2.552-1.815 2.312-3.35 3.188-5.57 3.188-.788 0-1.704-.154-2.746-.46-.823-.293-1.45-.758-1.876-1.394-.427-.636-.685-1.395-.777-2.281-.09-.885-.044-1.831.135-2.84.258-1.448.663-2.666 1.211-3.653.549-.987 1.183-1.78 1.904-2.38.72-.6 1.763-1.163 2.763-1.69.58-.306 2.037-.8 3.78-1.48 1.743-.68 2.262-.924 2.804-1.348.69-.512.849-1.14 1-1.988.157-.877-.044-1.735-.473-2.072-.43-.336-.8-.305-1.762-.305-.56.028-.38.072-.787.189-.41.118-.695.554-.832.744-.429.439-.315.75-.486 1.182-.173.431-.21.946-.346 1.707h-6.614zm10.33 5.051c-.662.275-1.002.424-1.86.85-.786.389-1.333.707-1.868 1.085-.537.377-1 .811-1.39 1.302-.39.492-.68.934-.846 1.744-.144.704.038 1.63.338 2.055.3.426.831.843 1.615.8 1.039-.056 1.867-.68 2.118-.96.25-.283.495-.775.73-1.475.236-.702.48-1.728.732-3.082l.43-2.319zM98.582 1.697h6.465l-5.737 33.5h-6.465l5.737-33.5z" fill="#231F20"/><path d="M111.848 1.557h7.171l2.722 18.765 2.653-18.765h6.845l-5.642 33.78h-7.731l-2.293-19.423-2.735 19.423h-6.634l5.644-33.78z" fill="#2E3092"/><path d="M131.66 18.052c.312-1.754.84-3.213 1.582-4.376.741-1.162 1.608-2.065 2.602-2.71.992-.642 2.015-1.084 3.068-1.326a14.54 14.54 0 013.248-.362c1.957.015 3.458.296 4.502.844 1.043.55 1.764 1.306 2.163 2.27.398.966.573 2.056.525 3.269-.05 1.214-.244 2.772-.582 4.673l-.628 3.516h-11.186l-.601 3.854c-.361 2.023.209 3.07 1.709 3.142a2.08 2.08 0 01.602-.071c.621-.072.997-.423 1.398-1.025.398-.6.725-1.973.954-3.258h6.46c-.539 3.028-1.516 5.577-3.042 7.111-1.524 1.535-3.601 2.326-6.228 2.369-1.259 0-2.388-.084-3.389-.252-1.002-.167-2.211-.501-3.06-1.152-.85-.65-1.423-1.454-1.787-2.91-.362-1.455-.183-3.882.241-6.25l1.449-7.356zm6.191.854h4.584l.379-2.124c.132-.738.088-1.342-.13-1.814-.219-.472-.621-.708-1.625-.708-.957 0-1.636.249-2.04.744-.403.497-.666 1.089-.789 1.778l-.379 2.123zM164.424 10.002l-.793 5.092h-3.603l-2.212 13.258c-.105.585-.119.998-.045 1.24.073.24.259.387.558.438.297.052.37.13 2.413.035l-.74 5.264c-1.459.094-1.932.124-2.659.183-.728.058-1.31.088-1.749.088-1.552 0-2.514-.263-3.309-1.227-.671-.814-1.272-2.347-.979-3.986l2.839-15.293h-2.915l.794-5.092h2.914l1.26-7.063h5.884l-1.261 7.063h3.603zM42.433 35.337H38.83c-3.574 0-6.261-3.505-5.615-7.039l2.268-12.3c.816-4.13 4.632-7.095 8.207-7.095h3.113c3.575 0 6.175 3.561 5.529 7.095l-2.134 12.3c-.645 3.534-4.191 7.04-7.766 7.04zm1.377-6.715l2.36-12.953c.154-.837-.461-1.68-1.309-1.68h-.737c-.846 0-1.75.702-1.943 1.68l-2.393 12.953c-.153.837.484 1.667 1.33 1.667h.853c.847 0 1.686-.83 1.84-1.667" fill="#231F20"/><path d="M11.72 17.132l-1.077 6.056h2.607l-.9 4.524c-.204 1.113-1.12 2.292-2.247 2.292H8.97c-1.128 0-1.974-1.104-1.77-2.218L10.454 9.51c.258-1.301 1.46-2.236 2.587-2.236h.982c1.126 0 1.528 1.115 1.324 2.23l-.539 3.532h7.235l.46-3.088C23.376 4.698 20.194.71 15.436.71h-1.36c-4.758 0-9.722 3.833-10.809 9.329L.34 26.319c-1.164 5.742.552 9.856 6.882 9.856 0 0 4.18.374 6.175-3.74-.063 1.683-.059 3.217-.059 3.217l5.049-.126s2.774-16.912 3.045-18.394H11.72z" fill="#ED1C24"/><path d="M165.181 11.982c0-1.165.268-2.247.805-3.245a6.065 6.065 0 012.241-2.354 5.902 5.902 0 013.099-.866c1.107 0 2.137.289 3.089.866a6.01 6.01 0 012.233 2.354c.542.998.813 2.08.813 3.245a6.778 6.778 0 01-.779 3.193 6.182 6.182 0 01-2.215 2.398c-.952.6-1.999.9-3.141.9a5.846 5.846 0 01-3.142-.892 6.208 6.208 0 01-2.215-2.388 6.751 6.751 0 01-.788-3.211zm.995 0c0 .992.231 1.913.693 2.76a5.166 5.166 0 001.878 1.982 4.913 4.913 0 002.579.719c.928 0 1.791-.243 2.587-.727a5.171 5.171 0 001.869-1.99 5.64 5.64 0 00.684-2.744c0-.987-.228-1.895-.684-2.726a5.045 5.045 0 00-1.869-1.973 4.886 4.886 0 00-2.587-.727c-.924 0-1.783.24-2.579.718a5.082 5.082 0 00-1.887 1.973 5.654 5.654 0 00-.684 2.735zm3.877.649v2.925h-1.22V8.21h2.389c.882 0 1.566.19 2.051.57.49.376.735.924.735 1.645 0 .71-.369 1.252-1.107 1.627.703.289 1.058.877 1.064 1.766v.527c0 .497.049.854.147 1.074v.138h-1.255c-.08-.208-.121-.577-.121-1.108 0-.536-.009-.854-.026-.952-.092-.553-.47-.842-1.134-.865h-1.523zm0-1.108h1.35c.416-.011.75-.112 1.004-.303a.896.896 0 00.381-.753c0-.42-.112-.718-.337-.891-.225-.179-.626-.268-1.203-.268h-1.195v2.215zM27.837 1.697h6.465l-5.737 33.5H22.1l5.737-33.5z" fill="#231F20"/><path d="M4.297 47.076v-1.51h3.739v3.568c-.364.366-.89.689-1.58.968a5.548 5.548 0 01-2.096.418c-.897 0-1.68-.196-2.349-.589a3.687 3.687 0 01-1.506-1.686A5.647 5.647 0 010 45.86c0-.932.188-1.76.563-2.486a3.853 3.853 0 011.648-1.667c.55-.297 1.235-.446 2.056-.446 1.067 0 1.9.234 2.5.7.6.466.985 1.11 1.157 1.932L6.2 44.23a1.895 1.895 0 00-.681-1.04c-.335-.255-.752-.384-1.252-.384-.758 0-1.36.252-1.808.753-.448.5-.67 1.243-.67 2.228 0 1.064.226 1.86.68 2.392.452.531 1.046.797 1.78.797.364 0 .729-.075 1.094-.222.365-.15.678-.33.94-.541v-1.136H4.297zM9.624 41.414h1.646v8.954H9.624v-8.954zM12.578 47.032c0-.57.134-1.12.404-1.655.27-.534.651-.94 1.145-1.221a3.29 3.29 0 011.656-.422c.941 0 1.713.32 2.315.956.6.638.902 1.443.902 2.417 0 .98-.303 1.794-.912 2.439-.606.645-1.372.969-2.293.969-.57 0-1.115-.136-1.633-.404a2.711 2.711 0 01-1.18-1.182c-.27-.519-.404-1.151-.404-1.897zm1.686.092c0 .645.148 1.136.44 1.478.294.343.655.513 1.085.513.43 0 .79-.17 1.082-.513.29-.342.436-.838.436-1.49 0-.635-.145-1.124-.436-1.466-.291-.342-.652-.513-1.082-.513-.43 0-.791.171-1.085.513-.292.342-.44.836-.44 1.478zM20.22 50.368v-8.954h1.647v3.225c.507-.603 1.11-.904 1.805-.904.757 0 1.385.286 1.88.857.497.573.745 1.395.745 2.465 0 1.108-.253 1.96-.76 2.56-.505.598-1.12.898-1.842.898-.356 0-.707-.093-1.052-.28a2.532 2.532 0 01-.894-.82v.953h-1.53zm1.635-3.384c0 .672.101 1.17.304 1.49.285.456.664.684 1.138.684.363 0 .673-.162.928-.486.256-.323.384-.833.384-1.529 0-.742-.13-1.276-.386-1.603-.258-.328-.589-.493-.99-.493-.396 0-.724.16-.986.48-.261.32-.392.806-.392 1.457zM28.853 45.86l-1.495-.28c.169-.628.457-1.092.867-1.393.411-.302 1.02-.452 1.83-.452.733 0 1.28.09 1.64.272.36.181.612.41.76.69.146.278.219.79.219 1.536l-.018 2.002c0 .572.027.992.08 1.263.052.27.15.56.296.87h-1.63a5.941 5.941 0 01-.159-.508 3.537 3.537 0 00-.057-.201 2.96 2.96 0 01-.903.641c-.32.143-.663.215-1.026.215-.64 0-1.146-.181-1.515-.544-.369-.363-.554-.82-.554-1.374a1.9 1.9 0 01.253-.98c.167-.288.402-.508.705-.66.303-.153.74-.286 1.31-.4.77-.152 1.303-.291 1.6-.422v-.17c0-.331-.078-.566-.234-.707-.156-.14-.451-.21-.885-.21-.293 0-.522.06-.686.179-.164.12-.297.332-.398.633zm2.203 1.392a9.87 9.87 0 01-1.001.263c-.458.103-.757.202-.898.299-.215.159-.322.362-.322.605 0 .24.087.45.258.623.172.175.39.262.657.262.297 0 .58-.1.85-.304.198-.154.33-.344.391-.57.044-.145.065-.424.065-.835v-.343zM34.297 41.414h1.648v8.954h-1.648v-8.954zM42.912 50.368v-7.44h-2.55v-1.514h6.828v1.514h-2.543v7.44h-1.735zM51.012 48.303l1.641.287c-.21.627-.544 1.106-1 1.432-.455.328-1.024.493-1.707.493-1.083 0-1.884-.369-2.403-1.106-.41-.591-.616-1.336-.616-2.236 0-1.074.27-1.916.809-2.525.54-.608 1.22-.913 2.045-.913.926 0 1.656.319 2.192.955.535.638.79 1.613.767 2.928h-4.125c.01.51.145.906.399 1.188.253.284.57.425.948.425a.979.979 0 00.652-.22c.175-.146.309-.382.398-.708zm.094-1.735c-.012-.496-.135-.875-.37-1.132a1.11 1.11 0 00-.855-.389c-.36 0-.656.137-.89.41-.235.273-.35.643-.347 1.111h2.462zM59.51 45.798l-1.624.306c-.054-.338-.179-.592-.372-.763-.193-.171-.445-.257-.753-.257-.41 0-.738.148-.981.444-.245.294-.367.789-.367 1.481 0 .768.124 1.313.372 1.63.248.318.581.476 1 .476.312 0 .567-.092.768-.278.199-.185.339-.504.421-.955l1.618.286c-.169.775-.492 1.359-.967 1.753-.477.396-1.116.594-1.917.594-.91 0-1.636-.3-2.177-.899-.541-.6-.812-1.426-.812-2.486 0-1.07.272-1.903.815-2.5.544-.598 1.277-.896 2.203-.896.758 0 1.36.17 1.809.51.446.34.768.858.963 1.554zM62.398 41.414v3.292c.531-.647 1.166-.972 1.905-.972.38 0 .721.073 1.026.221.304.146.534.333.688.561.155.229.26.48.317.757.057.279.085.707.085 1.29v3.805h-1.647v-3.426c0-.68-.03-1.113-.093-1.295a.858.858 0 00-.331-.438 1.04 1.04 0 00-.595-.162c-.275 0-.518.07-.733.208a1.193 1.193 0 00-.472.626c-.099.279-.15.692-.15 1.237v3.25h-1.645v-8.954h1.645zM73.751 50.368h-1.647v-3.31c0-.702-.035-1.154-.106-1.36a.95.95 0 00-.343-.479.945.945 0 00-.571-.172c-.285 0-.54.083-.768.245a1.224 1.224 0 00-.465.648c-.084.268-.126.765-.126 1.49v2.938h-1.648V43.88h1.53v.955c.543-.734 1.227-1.1 2.052-1.1.363 0 .695.068.996.205.301.136.528.31.683.52.154.213.261.453.321.722.062.269.092.654.092 1.155v4.03zM75.04 47.032c0-.57.135-1.12.404-1.655.27-.534.652-.94 1.147-1.221a3.287 3.287 0 011.655-.422c.942 0 1.714.32 2.315.956.602.638.902 1.443.902 2.417 0 .98-.302 1.794-.91 2.439-.608.645-1.373.969-2.295.969-.57 0-1.115-.136-1.632-.404a2.707 2.707 0 01-1.182-1.182c-.269-.519-.404-1.151-.404-1.897zm1.689.092c0 .645.145 1.136.439 1.478.293.343.654.513 1.084.513.43 0 .79-.17 1.081-.513.291-.342.437-.838.437-1.49 0-.635-.146-1.124-.437-1.466-.29-.342-.651-.513-1.081-.513-.43 0-.79.171-1.084.513-.294.342-.44.836-.44 1.478zM82.753 41.414H84.4v8.954h-1.646v-8.954zM85.707 47.032c0-.57.134-1.12.404-1.655a2.85 2.85 0 011.145-1.221 3.294 3.294 0 011.657-.422c.94 0 1.713.32 2.314.956.602.638.903 1.443.903 2.417 0 .98-.304 1.794-.911 2.439-.608.645-1.374.969-2.295.969-.57 0-1.115-.136-1.633-.404a2.71 2.71 0 01-1.18-1.182c-.27-.519-.404-1.151-.404-1.897zm1.687.092c0 .645.147 1.136.439 1.478.293.343.655.513 1.085.513.43 0 .791-.17 1.082-.513.291-.342.436-.838.436-1.49 0-.635-.145-1.124-.436-1.466-.291-.342-.652-.513-1.082-.513-.43 0-.792.171-1.085.513-.292.342-.44.836-.44 1.478zM93.266 50.795l1.882.237c.03.23.103.386.217.472.155.122.402.183.739.183.428 0 .75-.067.965-.202a.822.822 0 00.329-.434c.05-.142.076-.404.076-.787v-.947c-.492.7-1.113 1.05-1.863 1.05-.837 0-1.499-.367-1.987-1.105-.384-.583-.574-1.307-.574-2.174 0-1.087.25-1.918.752-2.492.502-.574 1.127-.862 1.873-.862.77 0 1.406.353 1.905 1.057v-.91h1.542v5.821c0 .766-.062 1.337-.183 1.716-.12.379-.29.676-.509.892-.22.215-.511.385-.877.506-.364.123-.826.184-1.385.184-1.056 0-1.803-.188-2.245-.566a1.796 1.796 0 01-.662-1.43c0-.059.002-.128.005-.21zm1.472-3.805c0 .689.127 1.192.383 1.511.257.321.57.48.947.48.402 0 .742-.164 1.019-.491.278-.329.417-.814.417-1.458 0-.671-.133-1.17-.399-1.496a1.247 1.247 0 00-1.007-.489c-.395 0-.72.16-.977.48-.256.32-.383.807-.383 1.463M99.972 43.88h1.752l1.489 4.606 1.452-4.606h1.707l-2.199 6.243-.392 1.13c-.145.38-.281.667-.413.868a1.82 1.82 0 01-.452.484 1.92 1.92 0 01-.626.292c-.249.07-.528.103-.841.103-.316 0-.627-.034-.932-.103l-.146-1.346c.258.054.49.081.697.081.383 0 .666-.118.85-.35.183-.235.323-.534.421-.895l-2.367-6.507zM116.27 47.076l1.682.555c-.258.978-.686 1.703-1.286 2.177-.6.475-1.361.712-2.282.712-1.142 0-2.079-.406-2.813-1.218-.736-.813-1.102-1.924-1.102-3.331 0-1.49.368-2.648 1.108-3.473.739-.824 1.709-1.237 2.912-1.237 1.051 0 1.904.324 2.561.972.391.382.683.932.879 1.648l-1.716.428c-.103-.465-.313-.83-.637-1.1-.322-.267-.714-.404-1.175-.404-.636 0-1.154.24-1.549.716-.398.476-.596 1.248-.596 2.316 0 1.13.196 1.937.586 2.417.391.48.899.721 1.524.721.461 0 .858-.153 1.19-.458.331-.305.57-.785.714-1.441zM119.048 47.032c0-.57.134-1.12.404-1.655.27-.534.652-.94 1.146-1.221a3.29 3.29 0 011.656-.422c.941 0 1.712.32 2.314.956.602.638.903 1.443.903 2.417 0 .98-.304 1.794-.911 2.439s-1.372.969-2.294.969a3.498 3.498 0 01-1.632-.404 2.706 2.706 0 01-1.182-1.182c-.27-.519-.404-1.151-.404-1.897zm1.688.092c0 .645.147 1.136.44 1.478.291.343.653.513 1.084.513.429 0 .79-.17 1.081-.513.291-.342.436-.838.436-1.49 0-.635-.145-1.124-.436-1.466-.291-.342-.652-.513-1.081-.513-.431 0-.793.171-1.084.513-.293.342-.44.836-.44 1.478zM126.638 43.88h1.517v.887c.542-.689 1.189-1.032 1.94-1.032.398 0 .745.086 1.037.256.293.17.533.43.721.776.273-.346.569-.605.885-.776.316-.17.655-.256 1.014-.256.457 0 .843.096 1.16.29.317.194.553.477.71.852.113.277.17.725.17 1.343v4.148h-1.648V46.66c0-.643-.057-1.058-.169-1.246-.153-.244-.387-.367-.704-.367-.231 0-.447.074-.65.221-.204.146-.35.36-.439.644-.09.283-.136.73-.136 1.34v3.116H130.4v-3.555c0-.63-.03-1.038-.088-1.222a.786.786 0 00-.272-.409c-.124-.09-.291-.135-.502-.135-.253 0-.483.072-.686.215a1.168 1.168 0 00-.436.617c-.088.268-.132.714-.132 1.337v3.152h-1.646V43.88zM137.385 43.881h1.536v.954c.199-.326.469-.59.809-.794.34-.205.717-.305 1.13-.305.724 0 1.337.295 1.842.885.503.59.755 1.412.755 2.468 0 1.082-.253 1.924-.76 2.525-.51.6-1.125.902-1.847.902-.344 0-.656-.072-.935-.215-.28-.142-.574-.387-.883-.733v3.268h-1.647v-8.955zm1.629 3.135c0 .728.14 1.266.417 1.615.278.349.615.522 1.014.522.383 0 .702-.16.956-.48.253-.319.38-.842.38-1.573 0-.679-.131-1.184-.393-1.514-.262-.33-.585-.494-.973-.494-.402 0-.736.16-1.002.485-.266.323-.399.803-.399 1.439zM145.996 45.86l-1.495-.28c.169-.628.457-1.092.868-1.393.41-.302 1.019-.452 1.828-.452.735 0 1.282.09 1.642.272.359.181.612.41.758.69.147.278.219.79.219 1.536l-.016 2.002c0 .572.026.992.079 1.263.052.27.15.56.295.87h-1.628a5.424 5.424 0 01-.158-.508c-.029-.101-.048-.168-.06-.201-.281.285-.582.5-.901.641a2.496 2.496 0 01-1.027.215c-.641 0-1.145-.181-1.515-.544-.369-.363-.554-.82-.554-1.374 0-.367.084-.694.252-.98.168-.288.403-.508.708-.66.301-.153.738-.286 1.308-.4.77-.152 1.303-.291 1.6-.422v-.17c0-.331-.078-.566-.234-.707-.156-.14-.452-.21-.885-.21-.293 0-.52.06-.686.179-.164.12-.297.332-.398.633zm2.203 1.392a9.792 9.792 0 01-1.002.263c-.456.103-.756.202-.896.299-.216.159-.322.362-.322.605 0 .24.085.45.257.623a.882.882 0 00.657.262c.296 0 .581-.1.849-.304.2-.154.331-.344.393-.57.042-.145.064-.424.064-.835v-.343zM157.102 50.368h-1.647v-3.31c0-.702-.036-1.154-.106-1.36a.94.94 0 00-.343-.479.944.944 0 00-.571-.172c-.286 0-.541.083-.767.245a1.226 1.226 0 00-.467.648c-.083.268-.126.765-.126 1.49v2.938h-1.647V43.88h1.531v.955c.543-.734 1.226-1.1 2.051-1.1.362 0 .695.068.996.205.301.136.528.31.683.52.154.213.261.453.322.722.06.269.091.654.091 1.155v4.03zM157.993 43.88h1.751l1.489 4.606 1.453-4.606h1.706l-2.199 6.243-.391 1.13c-.146.38-.282.667-.414.868-.131.2-.281.36-.451.484-.17.125-.378.222-.627.292-.249.07-.528.103-.841.103-.316 0-.627-.034-.932-.103l-.147-1.346c.259.054.491.081.698.081.383 0 .666-.118.85-.35.183-.235.323-.534.421-.895l-2.366-6.507z" fill="#77787B"/><path d="M0 39.427h164.392v-1.413H0v1.413z" fill="#2E3092"/></svg>