<svg width="74" height="74" viewBox="0 0 74 74" fill="none" xmlns="http://www.w3.org/2000/svg">
<path d="M37 55.5C47.2173 55.5 55.5 47.2173 55.5 37C55.5 26.7827 47.2173 18.5 37 18.5C26.7827 18.5 18.5 26.7827 18.5 37C18.5 47.2173 26.7827 55.5 37 55.5Z" fill="url(#paint0_linear_1177_1770)"/>
<path d="M49.8229 23.6805L18.7545 40.0299C18.5818 39.0294 18.4967 38.0158 18.5001 37.0005C18.4977 33.3713 19.5635 29.8217 21.5646 26.7941C23.5657 23.7665 26.4136 21.3947 29.7534 19.9745C33.0931 18.5543 36.777 18.1484 40.3458 18.8074C43.9147 19.4664 47.2106 21.1612 49.8229 23.6805Z" fill="url(#paint1_linear_1177_1770)"/>
<path d="M37 14.6186C36.6933 14.6186 36.3992 14.4968 36.1824 14.2799C35.9656 14.0631 35.8438 13.769 35.8438 13.4623V2.3125C35.8438 2.00584 35.9656 1.71175 36.1824 1.49491C36.3992 1.27807 36.6933 1.15625 37 1.15625C37.3067 1.15625 37.6008 1.27807 37.8176 1.49491C38.0344 1.71175 38.1562 2.00584 38.1562 2.3125V13.4623C38.1562 13.769 38.0344 14.0631 37.8176 14.2799C37.6008 14.4968 37.3067 14.6186 37 14.6186Z" fill="url(#paint2_linear_1177_1770)"/>
<path d="M25.2323 17.7717C25.0291 17.7719 24.8294 17.7186 24.6534 17.6171C24.4774 17.5156 24.3312 17.3695 24.2296 17.1935L21.0172 11.6291C20.9413 11.4976 20.892 11.3524 20.8722 11.2018C20.8524 11.0512 20.8624 10.8982 20.9017 10.7516C20.9411 10.6049 21.0089 10.4674 21.1013 10.3469C21.1938 10.2264 21.3091 10.1253 21.4406 10.0494C21.5721 9.97349 21.7173 9.92422 21.8679 9.90441C22.0185 9.8846 22.1714 9.89464 22.3181 9.93396C22.4648 9.97328 22.6023 10.0411 22.7228 10.1336C22.8433 10.226 22.9444 10.3413 23.0203 10.4728L26.2327 16.0373C26.3341 16.213 26.3875 16.4123 26.3876 16.6152C26.3876 16.8181 26.3343 17.0174 26.2329 17.1931C26.1316 17.3689 25.9857 17.5148 25.8101 17.6164C25.6344 17.7179 25.4352 17.7715 25.2323 17.7717Z" fill="url(#paint3_linear_1177_1770)"/>
<path d="M16.614 26.3873C16.4114 26.3873 16.2124 26.3339 16.037 26.2326L6.38103 20.658C6.24951 20.582 6.13423 20.481 6.04177 20.3605C5.94931 20.24 5.88148 20.1025 5.84216 19.9558C5.80285 19.8091 5.79281 19.6561 5.81261 19.5056C5.83242 19.355 5.8817 19.2098 5.95762 19.0783C6.03354 18.9468 6.13462 18.8315 6.25509 18.739C6.37557 18.6466 6.51307 18.5787 6.65976 18.5394C6.80644 18.5001 6.95944 18.4901 7.11 18.5099C7.26057 18.5297 7.40576 18.579 7.53728 18.6549L17.1931 24.2295C17.4137 24.3568 17.5862 24.5533 17.6836 24.7886C17.7811 25.024 17.7981 25.2849 17.7321 25.5308C17.666 25.7768 17.5206 25.9941 17.3184 26.149C17.1162 26.3039 16.8687 26.3876 16.614 26.3873Z" fill="url(#paint4_linear_1177_1770)"/>
<path d="M13.4626 38.1562H7.03711C6.73045 38.1562 6.43636 38.0344 6.21952 37.8176C6.00268 37.6008 5.88086 37.3067 5.88086 37C5.88086 36.6933 6.00268 36.3992 6.21952 36.1824C6.43636 35.9656 6.73045 35.8438 7.03711 35.8438H13.4626C13.7693 35.8438 14.0634 35.9656 14.2802 36.1824C14.4971 36.3992 14.6189 36.6933 14.6189 37C14.6189 37.3067 14.4971 37.6008 14.2802 37.8176C14.0634 38.0344 13.7693 38.1562 13.4626 38.1562Z" fill="url(#paint5_linear_1177_1770)"/>
<path d="M6.96049 55.5006C6.7058 55.5009 6.45812 55.4171 6.25592 55.2623C6.05372 55.1074 5.90831 54.8901 5.84228 54.6441C5.77624 54.3981 5.79327 54.1372 5.89072 53.9019C5.98817 53.6666 6.1606 53.4701 6.38121 53.3428L16.0371 47.7682C16.1686 47.6922 16.3138 47.643 16.4643 47.6232C16.6149 47.6034 16.7679 47.6134 16.9146 47.6527C17.0613 47.692 17.1988 47.7599 17.3192 47.8523C17.4397 47.9448 17.5408 48.0601 17.6167 48.1916C17.6926 48.3231 17.7419 48.4683 17.7617 48.6189C17.7815 48.7694 17.7715 48.9224 17.7322 49.0691C17.6929 49.2158 17.625 49.3533 17.5326 49.4738C17.4401 49.5942 17.3248 49.6953 17.1933 49.7712L7.53746 55.3459C7.36207 55.4472 7.16307 55.5006 6.96049 55.5006Z" fill="url(#paint6_linear_1177_1770)"/>
<path d="M22.0176 64.1055C21.8147 64.1054 21.6154 64.0518 21.4398 63.9503C21.2642 63.8487 21.1183 63.7027 21.017 63.527C20.9156 63.3512 20.8623 63.1519 20.8623 62.949C20.8623 62.7462 20.9158 62.5469 21.0172 62.3712L24.2296 56.8068C24.3829 56.5412 24.6355 56.3474 24.9318 56.2679C25.228 56.1885 25.5437 56.2301 25.8093 56.3834C26.0749 56.5367 26.2688 56.7893 26.3482 57.0855C26.4276 57.3818 26.386 57.6974 26.2327 57.9631L23.0203 63.5275C22.9187 63.7035 22.7725 63.8495 22.5965 63.951C22.4204 64.0525 22.2208 64.1058 22.0176 64.1055Z" fill="url(#paint7_linear_1177_1770)"/>
<path d="M37 72.8432C36.6933 72.8432 36.3992 72.7214 36.1824 72.5045C35.9656 72.2877 35.8438 71.9936 35.8438 71.6869V60.5371C35.8438 60.2305 35.9656 59.9364 36.1824 59.7195C36.3992 59.5027 36.6933 59.3809 37 59.3809C37.3067 59.3809 37.6008 59.5027 37.8176 59.7195C38.0344 59.9364 38.1562 60.2305 38.1562 60.5371V71.6869C38.1562 71.9936 38.0344 72.2877 37.8176 72.5045C37.6008 72.7214 37.3067 72.8432 37 72.8432Z" fill="url(#paint8_linear_1177_1770)"/>
<path d="M51.9823 64.1055C51.7791 64.1058 51.5794 64.0525 51.4034 63.951C51.2274 63.8495 51.0812 63.7034 50.9796 63.5274L47.7672 57.9631C47.6913 57.8315 47.642 57.6864 47.6222 57.5358C47.6024 57.3852 47.6124 57.2322 47.6517 57.0855C47.6911 56.9389 47.7589 56.8013 47.8513 56.6809C47.9438 56.5604 48.0591 56.4593 48.1906 56.3834C48.3221 56.3075 48.4673 56.2582 48.6179 56.2384C48.7685 56.2186 48.9214 56.2286 49.0681 56.2679C49.2148 56.3073 49.3523 56.3751 49.4728 56.4675C49.5933 56.56 49.6944 56.6753 49.7703 56.8068L52.9827 62.3713C53.0841 62.547 53.1376 62.7463 53.1376 62.9492C53.1376 63.152 53.0843 63.3514 52.9829 63.5271C52.8816 63.7028 52.7357 63.8488 52.5601 63.9504C52.3844 64.0519 52.1852 64.1054 51.9823 64.1055Z" fill="url(#paint9_linear_1177_1770)"/>
<path d="M67.0396 55.5006C66.8371 55.5006 66.638 55.4472 66.4627 55.3459L56.8068 49.7713C56.5412 49.6179 56.3474 49.3654 56.2679 49.0691C56.1885 48.7729 56.2301 48.4572 56.3834 48.1916C56.5367 47.926 56.7893 47.7321 57.0855 47.6527C57.3818 47.5733 57.6974 47.6148 57.9631 47.7682L67.619 53.3428C67.8396 53.4701 68.0121 53.6666 68.1095 53.902C68.207 54.1373 68.224 54.3982 68.1579 54.6442C68.0919 54.8902 67.9465 55.1075 67.7442 55.2623C67.542 55.4172 67.2943 55.5009 67.0396 55.5006Z" fill="url(#paint10_linear_1177_1770)"/>
<path d="M66.9636 38.1562H60.5381C60.2314 38.1562 59.9373 38.0344 59.7205 37.8176C59.5037 37.6008 59.3818 37.3067 59.3818 37C59.3818 36.6933 59.5037 36.3992 59.7205 36.1824C59.9373 35.9656 60.2314 35.8438 60.5381 35.8438H66.9636C67.2703 35.8438 67.5644 35.9656 67.7812 36.1824C67.998 36.3992 68.1199 36.6933 68.1199 37C68.1199 37.3067 67.998 37.6008 67.7812 37.8176C67.5644 38.0344 67.2703 38.1562 66.9636 38.1562Z" fill="url(#paint11_linear_1177_1770)"/>
<path d="M57.3853 26.3873C57.1306 26.3876 56.8829 26.3039 56.6807 26.149C56.4785 25.9941 56.3331 25.7768 56.2671 25.5308C56.201 25.2849 56.2181 25.024 56.3155 24.7886C56.413 24.5533 56.5854 24.3568 56.806 24.2295L66.462 18.6549C66.5935 18.579 66.7387 18.5297 66.8893 18.5099C67.0398 18.4901 67.1928 18.5001 67.3395 18.5394C67.4862 18.5787 67.6237 18.6466 67.7442 18.739C67.8646 18.8315 67.9657 18.9468 68.0416 19.0783C68.1176 19.2098 68.1668 19.355 68.1866 19.5056C68.2065 19.6561 68.1964 19.8091 68.1571 19.9558C68.1178 20.1025 68.05 20.24 67.9575 20.3605C67.865 20.481 67.7497 20.582 67.6182 20.658L57.9624 26.2326C57.787 26.334 57.5879 26.3873 57.3853 26.3873Z" fill="url(#paint12_linear_1177_1770)"/>
<path d="M48.7676 17.7717C48.5647 17.7715 48.3655 17.7179 48.1898 17.6164C48.0142 17.5148 47.8683 17.3689 47.767 17.1931C47.6656 17.0174 47.6123 16.8181 47.6123 16.6152C47.6123 16.4123 47.6658 16.213 47.7672 16.0373L50.9796 10.4728C51.0555 10.3413 51.1566 10.226 51.2771 10.1336C51.3976 10.0411 51.5351 9.97328 51.6818 9.93396C51.8285 9.89464 51.9814 9.8846 52.132 9.90441C52.2826 9.92422 52.4278 9.97349 52.5593 10.0494C52.6908 10.1253 52.8061 10.2264 52.8986 10.3469C52.991 10.4674 53.0588 10.6049 53.0982 10.7516C53.1375 10.8982 53.1475 11.0512 53.1277 11.2018C53.1079 11.3524 53.0586 11.4976 52.9827 11.6291L49.7703 17.1935C49.6687 17.3695 49.5225 17.5156 49.3465 17.6171C49.1705 17.7186 48.9708 17.7719 48.7676 17.7717Z" fill="url(#paint13_linear_1177_1770)"/>
<path d="M19.1094 41.625C20.1295 45.5949 22.4411 49.1128 25.6801 51.6247C28.9191 54.1367 32.9016 55.5 37.0005 55.5C41.0994 55.5 45.0819 54.1367 48.3209 51.6247C51.5599 49.1128 53.8715 45.5949 54.8916 41.625H19.1094Z" fill="url(#paint14_linear_1177_1770)"/>
<path d="M35.8438 9.25V13.4623C35.8438 13.769 35.9656 14.0631 36.1824 14.2799C36.3992 14.4968 36.6933 14.6186 37 14.6186C37.3067 14.6186 37.6008 14.4968 37.8176 14.2799C38.0344 14.0631 38.1562 13.769 38.1562 13.4623V9.25H35.8438Z" fill="url(#paint15_linear_1177_1770)"/>
<path d="M22.124 13.5449L24.2301 17.1929C24.3061 17.3244 24.4071 17.4397 24.5276 17.5321C24.6481 17.6245 24.7856 17.6923 24.9322 17.7316C25.0789 17.7709 25.2319 17.781 25.3824 17.7612C25.533 17.7413 25.6781 17.6921 25.8096 17.6161C25.9411 17.5402 26.0564 17.4391 26.1488 17.3187C26.2413 17.1982 26.3091 17.0607 26.3484 16.914C26.3877 16.7674 26.3977 16.6144 26.3779 16.4639C26.3581 16.3133 26.3088 16.1681 26.2329 16.0366L24.1266 12.3887L22.124 13.5449Z" fill="url(#paint16_linear_1177_1770)"/>
<path d="M12.3896 24.1257L16.0376 26.2319C16.1691 26.3078 16.3143 26.3571 16.4648 26.3769C16.6154 26.3967 16.7684 26.3867 16.915 26.3474C17.0617 26.3081 17.1992 26.2403 17.3196 26.1479C17.4401 26.0554 17.5412 25.9402 17.6171 25.8087C17.693 25.6771 17.7423 25.532 17.7621 25.3814C17.7819 25.2309 17.7719 25.0779 17.7326 24.9312C17.6933 24.7846 17.6255 24.6471 17.5331 24.5266C17.4406 24.4062 17.3254 24.3051 17.1939 24.2292L13.5459 22.123L12.3896 24.1257Z" fill="url(#paint17_linear_1177_1770)"/>
<path d="M9.25 38.1562H13.4623C13.769 38.1562 14.0631 38.0344 14.2799 37.8176C14.4968 37.6008 14.6186 37.3067 14.6186 37C14.6186 36.6933 14.4968 36.3992 14.2799 36.1824C14.0631 35.9656 13.769 35.8438 13.4623 35.8438H9.25V38.1562Z" fill="url(#paint18_linear_1177_1770)"/>
<path d="M13.5459 51.877L17.1939 49.7709C17.4594 49.6176 17.6532 49.3651 17.7326 49.0688C17.812 48.7726 17.7704 48.457 17.6171 48.1914C17.4638 47.9259 17.2112 47.7321 16.915 47.6527C16.6188 47.5733 16.3032 47.6149 16.0376 47.7682L12.3896 49.8744L13.5459 51.877Z" fill="url(#paint19_linear_1177_1770)"/>
<path d="M24.1266 61.6109L26.2329 57.9629C26.3088 57.8314 26.3581 57.6862 26.3779 57.5357C26.3977 57.3852 26.3877 57.2322 26.3484 57.0855C26.3091 56.9388 26.2413 56.8013 26.1488 56.6809C26.0564 56.5604 25.9411 56.4593 25.8096 56.3834C25.6781 56.3075 25.533 56.2582 25.3824 56.2384C25.2319 56.2186 25.0789 56.2286 24.9322 56.2679C24.7856 56.3072 24.6481 56.375 24.5276 56.4675C24.4071 56.5599 24.3061 56.6752 24.2301 56.8067L22.124 60.4546L24.1266 61.6109Z" fill="url(#paint20_linear_1177_1770)"/>
<path d="M38.1562 64.7494V60.5371C38.1562 60.2305 38.0344 59.9364 37.8176 59.7195C37.6008 59.5027 37.3067 59.3809 37 59.3809C36.6933 59.3809 36.3992 59.5027 36.1824 59.7195C35.9656 59.9364 35.8438 60.2305 35.8438 60.5371V64.7494H38.1562Z" fill="url(#paint21_linear_1177_1770)"/>
<path d="M51.8761 60.4542L49.77 56.8067C49.6166 56.5411 49.3641 56.3473 49.0679 56.2679C48.7716 56.1885 48.456 56.2301 48.1905 56.3834C47.9249 56.5367 47.7311 56.7893 47.6517 57.0855C47.5723 57.3817 47.6139 57.6973 47.7672 57.9629L49.8734 61.6109L51.8761 60.4542Z" fill="url(#paint22_linear_1177_1770)"/>
<path d="M61.6104 49.8744L57.9629 47.7682C57.6973 47.6149 57.3817 47.5733 57.0855 47.6527C56.7893 47.7321 56.5367 47.9259 56.3834 48.1914C56.2301 48.457 56.1885 48.7726 56.2679 49.0688C56.3473 49.3651 56.5411 49.6176 56.8067 49.7709L60.4546 51.877L61.6104 49.8744Z" fill="url(#paint23_linear_1177_1770)"/>
<path d="M64.7504 35.8438H60.5381C60.2314 35.8438 59.9373 35.9656 59.7205 36.1824C59.5037 36.3992 59.3818 36.6933 59.3818 37C59.3818 37.3067 59.5037 37.6008 59.7205 37.8176C59.9373 38.0344 60.2314 38.1562 60.5381 38.1562H64.7504V35.8438Z" fill="url(#paint24_linear_1177_1770)"/>
<path d="M60.4542 22.123L56.8067 24.2292C56.6752 24.3051 56.5599 24.4062 56.4675 24.5266C56.375 24.6471 56.3072 24.7846 56.2679 24.9312C56.2286 25.0779 56.2186 25.2309 56.2384 25.3814C56.2582 25.532 56.3075 25.6771 56.3834 25.8087C56.4593 25.9402 56.5604 26.0554 56.6809 26.1479C56.8014 26.2403 56.9388 26.3081 57.0855 26.3474C57.2322 26.3867 57.3852 26.3967 57.5357 26.3769C57.6862 26.3571 57.8314 26.3078 57.9629 26.2319L61.6109 24.1257L60.4542 22.123Z" fill="url(#paint25_linear_1177_1770)"/>
<path d="M49.8734 12.3887L47.7672 16.0362C47.6139 16.3018 47.5723 16.6174 47.6517 16.9136C47.7311 17.2098 47.9249 17.4623 48.1905 17.6157C48.456 17.769 48.7716 17.8105 49.0679 17.7312C49.3641 17.6518 49.6166 17.458 49.77 17.1924L51.8761 13.5445L49.8734 12.3887Z" fill="url(#paint26_linear_1177_1770)"/>
<defs>
<linearGradient id="paint0_linear_1177_1770" x1="18.5" y1="37" x2="55.5" y2="37" gradientUnits="userSpaceOnUse">
<stop stop-color="#F4F42A"/>
<stop offset="1" stop-color="#FFB92B"/>
</linearGradient>
<linearGradient id="paint1_linear_1177_1770" x1="33.588" y1="30.8689" x2="26.9916" y2="21.5773" gradientUnits="userSpaceOnUse">
<stop stop-color="#FEFFC0" stop-opacity="0"/>
<stop offset="1" stop-color="#F8FF9B"/>
</linearGradient>
<linearGradient id="paint2_linear_1177_1770" x1="38.1562" y1="7.88794" x2="35.8438" y2="7.88794" gradientUnits="userSpaceOnUse">
<stop stop-color="#F4F42A"/>
<stop offset="1" stop-color="#FFB92B"/>
</linearGradient>
<linearGradient id="paint3_linear_1177_1770" x1="24.4711" y1="13.3444" x2="22.9992" y2="14.1954" gradientUnits="userSpaceOnUse">
<stop stop-color="#F4F42A"/>
<stop offset="1" stop-color="#FFB92B"/>
</linearGradient>
<linearGradient id="paint4_linear_1177_1770" x1="12.3577" y1="21.4556" x2="11.176" y2="23.5021" gradientUnits="userSpaceOnUse">
<stop stop-color="#F4F42A"/>
<stop offset="1" stop-color="#FFB92B"/>
</linearGradient>
<linearGradient id="paint5_linear_1177_1770" x1="10.2504" y1="35.8438" x2="10.2504" y2="37.9493" gradientUnits="userSpaceOnUse">
<stop stop-color="#F4F42A"/>
<stop offset="1" stop-color="#FFB92B"/>
</linearGradient>
<linearGradient id="paint6_linear_1177_1770" x1="11.2999" y1="50.7137" x2="12.3081" y2="52.4596" gradientUnits="userSpaceOnUse">
<stop stop-color="#F4F42A"/>
<stop offset="1" stop-color="#FFB92B"/>
</linearGradient>
<linearGradient id="paint7_linear_1177_1770" x1="22.8015" y1="59.6917" x2="24.5949" y2="60.7265" gradientUnits="userSpaceOnUse">
<stop stop-color="#F4F42A"/>
<stop offset="1" stop-color="#FFB92B"/>
</linearGradient>
<linearGradient id="paint8_linear_1177_1770" x1="35.8438" y1="66.1127" x2="38.1562" y2="66.1127" gradientUnits="userSpaceOnUse">
<stop stop-color="#F4F42A"/>
<stop offset="1" stop-color="#FFB92B"/>
</linearGradient>
<linearGradient id="paint9_linear_1177_1770" x1="49.3738" y1="60.745" x2="51.3764" y2="59.5888" gradientUnits="userSpaceOnUse">
<stop stop-color="#F4F42A"/>
<stop offset="1" stop-color="#FFB92B"/>
</linearGradient>
<linearGradient id="paint10_linear_1177_1770" x1="61.6342" y1="52.5591" x2="62.7916" y2="50.5553" gradientUnits="userSpaceOnUse">
<stop stop-color="#F4F42A"/>
<stop offset="1" stop-color="#FFB92B"/>
</linearGradient>
<linearGradient id="paint11_linear_1177_1770" x1="63.7514" y1="38.1562" x2="63.7514" y2="35.8438" gradientUnits="userSpaceOnUse">
<stop stop-color="#F4F42A"/>
<stop offset="1" stop-color="#FFB92B"/>
</linearGradient>
<linearGradient id="paint12_linear_1177_1770" x1="62.7909" y1="23.4455" x2="61.6335" y2="21.4417" gradientUnits="userSpaceOnUse">
<stop stop-color="#F4F42A"/>
<stop offset="1" stop-color="#FFB92B"/>
</linearGradient>
<linearGradient id="paint13_linear_1177_1770" x1="51.3764" y1="14.4116" x2="49.3738" y2="13.2553" gradientUnits="userSpaceOnUse">
<stop stop-color="#F4F42A"/>
<stop offset="1" stop-color="#FFB92B"/>
</linearGradient>
<linearGradient id="paint14_linear_1177_1770" x1="37.0005" y1="41.625" x2="37.0005" y2="55.5" gradientUnits="userSpaceOnUse">
<stop stop-color="#FFB92B" stop-opacity="0"/>
<stop offset="1" stop-color="#FFB92B"/>
</linearGradient>
<linearGradient id="paint15_linear_1177_1770" x1="4.11061e-07" y1="9.25" x2="1.15625" y2="14.6185" gradientUnits="userSpaceOnUse">
<stop stop-color="#FFB92B" stop-opacity="0"/>
<stop offset="1" stop-color="#FFB92B"/>
</linearGradient>
<linearGradient id="paint16_linear_1177_1770" x1="-8.91781" y1="31.4663" x2="-5.23226" y2="35.5373" gradientUnits="userSpaceOnUse">
<stop stop-color="#FFB92B" stop-opacity="0"/>
<stop offset="1" stop-color="#FFB92B"/>
</linearGradient>
<linearGradient id="paint17_linear_1177_1770" x1="-5.53269" y1="55.1675" x2="-0.30547" y2="56.8504" gradientUnits="userSpaceOnUse">
<stop stop-color="#FFB92B" stop-opacity="0"/>
<stop offset="1" stop-color="#FFB92B"/>
</linearGradient>
<linearGradient id="paint18_linear_1177_1770" x1="9.25" y1="74" x2="14.6185" y2="72.8438" gradientUnits="userSpaceOnUse">
<stop stop-color="#FFB92B" stop-opacity="0"/>
<stop offset="1" stop-color="#FFB92B"/>
</linearGradient>
<linearGradient id="paint19_linear_1177_1770" x1="31.4673" y1="82.9189" x2="35.5383" y2="79.2334" gradientUnits="userSpaceOnUse">
<stop stop-color="#FFB92B" stop-opacity="0"/>
<stop offset="1" stop-color="#FFB92B"/>
</linearGradient>
<linearGradient id="paint20_linear_1177_1770" x1="55.1685" y1="79.5332" x2="56.8514" y2="74.306" gradientUnits="userSpaceOnUse">
<stop stop-color="#FFB92B" stop-opacity="0"/>
<stop offset="1" stop-color="#FFB92B"/>
</linearGradient>
<linearGradient id="paint21_linear_1177_1770" x1="74" y1="64.7494" x2="72.8438" y2="59.381" gradientUnits="userSpaceOnUse">
<stop stop-color="#FFB92B" stop-opacity="0"/>
<stop offset="1" stop-color="#FFB92B"/>
</linearGradient>
<linearGradient id="paint22_linear_1177_1770" x1="82.9179" y1="42.5328" x2="79.2324" y2="38.4618" gradientUnits="userSpaceOnUse">
<stop stop-color="#FFB92B" stop-opacity="0"/>
<stop offset="1" stop-color="#FFB92B"/>
</linearGradient>
<linearGradient id="paint23_linear_1177_1770" x1="79.5327" y1="18.8326" x2="74.3055" y2="17.1496" gradientUnits="userSpaceOnUse">
<stop stop-color="#FFB92B" stop-opacity="0"/>
<stop offset="1" stop-color="#FFB92B"/>
</linearGradient>
<linearGradient id="paint24_linear_1177_1770" x1="64.7504" y1="9.1075e-08" x2="59.382" y2="1.15625" gradientUnits="userSpaceOnUse">
<stop stop-color="#FFB92B" stop-opacity="0"/>
<stop offset="1" stop-color="#FFB92B"/>
</linearGradient>
<linearGradient id="paint25_linear_1177_1770" x1="42.5328" y1="-8.91878" x2="38.4618" y2="-5.23324" gradientUnits="userSpaceOnUse">
<stop stop-color="#FFB92B" stop-opacity="0"/>
<stop offset="1" stop-color="#FFB92B"/>
</linearGradient>
<linearGradient id="paint26_linear_1177_1770" x1="18.8316" y1="-5.53367" x2="17.1487" y2="-0.306447" gradientUnits="userSpaceOnUse">
<stop stop-color="#FFB92B" stop-opacity="0"/>
<stop offset="1" stop-color="#FFB92B"/>
</linearGradient>
</defs>
</svg>
