<svg width="130" height="39" viewBox="0 0 130 39" fill="none" xmlns="http://www.w3.org/2000/svg">
<g clip-path="url(#clip0_1235_2468)">
<path d="M20.3306 1.23842H25.0522L20.8623 25.7047H16.1406L20.3306 1.23842ZM45.701 9.08297C46.2196 8.33583 46.7951 7.77421 47.4275 7.40027C48.0607 7.0278 48.553 6.8401 49.3973 6.8401C49.953 6.8401 50.3562 6.86202 50.6052 6.90364C51.8066 7.11763 52.5808 7.73696 52.9262 8.76235C53.2717 9.78774 53.2432 11.4325 52.8386 13.6965L51.784 19.6079C51.3648 21.9574 50.6826 23.6663 49.7391 24.7348C48.7947 25.8026 47.6547 26.3365 46.3182 26.3365C45.4315 26.3365 45.1087 26.0166 44.5069 25.6426C43.9051 25.2702 43.4194 24.4157 43.0747 23.4757L42.676 25.8077H38.237L42.6299 1.20117H47.1084L45.701 9.08297ZM45.0423 13.6352L44.022 19.2726C43.8715 20.114 43.9088 20.7749 44.1315 21.2562C44.355 21.7368 44.6749 21.9902 45.0919 22.0158C45.3848 22.0077 45.6791 21.8938 45.9712 21.6754C46.2634 21.4563 46.5205 21.1386 46.741 20.7216C46.9616 20.3053 47.1661 19.6458 47.2639 19.0959L48.2382 13.6352C48.3675 12.9136 48.3624 12.3549 48.2221 11.9598C48.1302 11.714 47.9656 11.5021 47.7501 11.3523C47.5347 11.2025 47.2787 11.1219 47.0164 11.1213C46.5343 11.1213 46.072 11.3989 45.7017 11.8108C45.3307 12.2227 45.1657 12.9479 45.0423 13.6352ZM54.5257 13.075C54.728 11.943 55.2217 10.7138 55.6453 9.92286C56.0703 9.13336 56.7948 8.52353 57.3981 8.08022C58.0006 7.63763 58.7054 7.31409 59.5102 7.11179C60.3165 6.90876 61.2338 6.79701 62.2636 6.7751C64.4751 6.7751 66.0088 7.18409 66.8618 8.00061C67.7148 8.81786 67.9916 10.0704 67.6907 11.7567L65.6969 22.9236C65.5866 23.5422 65.5165 24.0556 65.4866 24.4602C65.4592 24.9096 65.4753 25.3607 65.5348 25.807H60.8913C60.8321 25.5397 60.8212 24.1579 60.8592 23.9431C59.5336 25.6317 58.4125 26.2715 56.7912 26.2715C56.2157 26.2715 55.5467 26.159 54.7857 25.9355C54.1846 25.7215 53.7267 25.3819 53.4156 24.9174C53.1037 24.4529 52.9153 23.8986 52.8481 23.2515C52.7824 22.6052 52.816 21.9143 52.9467 21.1774C53.1351 20.1198 53.4309 19.2303 53.8311 18.5094C54.2321 17.7886 54.6951 17.2094 55.2217 16.7712C55.7475 16.333 56.5093 15.9218 57.2396 15.537C57.6632 15.3135 58.7273 14.9527 60.0003 14.4561C61.2733 13.9594 61.6523 13.7812 62.0482 13.4716C62.5521 13.0976 62.6682 12.639 62.7785 12.0197C62.8932 11.3791 62.7464 10.7525 62.433 10.5064C62.119 10.261 61.8488 10.2836 61.1462 10.2836C60.7372 10.3041 60.8687 10.3362 60.5714 10.4217C60.272 10.5079 60.0638 10.8263 59.9638 10.965C59.6505 11.2857 59.7337 11.5128 59.6088 11.8283C59.4825 12.1431 59.4555 12.5192 59.3561 13.075H54.5257ZM62.0701 16.7639C61.5866 16.9648 61.3383 17.0736 60.7116 17.3847C60.1376 17.6688 59.7381 17.9011 59.3474 18.1771C58.9552 18.4525 58.617 18.7694 58.3322 19.128C58.0474 19.4874 57.8356 19.8102 57.7143 20.4017C57.6092 20.9159 57.7421 21.5922 57.9612 21.9026C58.1803 22.2137 58.5681 22.5183 59.1407 22.4868C59.8995 22.4459 60.5042 21.9902 60.6875 21.7857C60.8701 21.579 61.049 21.2197 61.2207 20.7085C61.393 20.1958 61.5712 19.4465 61.7553 18.4576L62.0701 16.7639ZM71.9983 1.23842H76.7199L72.5299 25.7047H67.8083L71.9983 1.23842Z" fill="white"/>
<path d="M81.6865 1.13672H86.9237L88.9117 14.8415L90.8493 1.13672H95.8484L91.7279 25.8075H86.0816L84.407 11.6222L82.4095 25.8075H77.5645L81.6865 1.13672Z" fill="white"/>
<path d="M96.1568 13.1841C96.3847 11.9031 96.7703 10.8375 97.3122 9.98811C97.8534 9.13946 98.4866 8.47997 99.2125 8.0089C99.937 7.54002 100.684 7.21722 101.453 7.04047C102.231 6.86348 103.027 6.77479 103.825 6.77609C105.255 6.78705 106.351 6.99227 107.113 7.3925C107.875 7.79418 108.402 8.34632 108.693 9.05036C108.984 9.75587 109.112 10.5519 109.076 11.4378C109.04 12.3245 108.898 13.4623 108.651 14.8507L108.193 17.4186H100.023L99.5843 20.2333C99.3206 21.7108 99.7369 22.4754 100.832 22.528C100.976 22.4893 101.124 22.4719 101.272 22.4761C101.726 22.4236 102 22.1672 102.293 21.7276C102.584 21.2894 102.823 20.2866 102.99 19.3481H107.708C107.314 21.5596 106.601 23.4212 105.486 24.5415C104.373 25.6626 102.856 26.2403 100.938 26.2717C100.018 26.2717 99.1936 26.2104 98.4625 26.0877C97.7307 25.9657 96.8477 25.7218 96.2277 25.2463C95.6069 24.7716 95.1884 24.1844 94.9225 23.121C94.6582 22.0584 94.7889 20.2859 95.0985 18.5564L96.1568 13.1841ZM100.678 13.8078H104.026L104.303 12.2565C104.399 11.7176 104.367 11.2764 104.208 10.9317C104.048 10.587 103.755 10.4146 103.021 10.4146C102.322 10.4146 101.826 10.5965 101.531 10.958C101.237 11.321 101.045 11.7533 100.955 12.2565L100.678 13.8078ZM120.086 7.30485L119.506 11.0237H116.875L115.26 20.7065C115.183 21.1338 115.173 21.4354 115.227 21.6122C115.28 21.7874 115.416 21.8948 115.634 21.932C115.851 21.97 115.904 22.027 117.396 21.9576L116.856 25.8021C115.79 25.8708 115.445 25.8927 114.914 25.9358C114.382 25.9781 113.957 26 113.637 26C112.503 26 111.801 25.8079 111.22 25.1039C110.73 24.5094 110.291 23.3898 110.505 22.1928L112.578 11.0237H110.45L111.029 7.30485H113.158L114.078 2.14648H118.375L117.454 7.30485H120.086ZM30.991 25.8079H28.3596C25.7494 25.8079 23.787 23.2481 24.2588 20.6671L25.9152 11.684C26.5111 8.66766 29.2981 6.50221 31.9091 6.50221H34.1826C36.7936 6.50221 38.6924 9.10295 38.2206 11.684L36.6621 20.6671C36.191 23.2481 33.6012 25.8087 30.9903 25.8087L30.991 25.8079ZM31.9967 20.9037L33.7203 11.4437C33.8328 10.8324 33.3836 10.2167 32.7643 10.2167H32.226C31.6082 10.2167 30.9479 10.7294 30.807 11.4437L29.0593 20.9037C28.9475 21.515 29.4128 22.1212 30.0306 22.1212H30.6536C31.2722 22.1212 31.8842 21.515 31.9967 20.9037Z" fill="white"/>
<path d="M8.55933 12.5112L7.77275 16.9341H9.67674L9.01944 20.2381C8.87045 21.051 8.20146 21.9121 7.37837 21.9121H6.5509C5.72708 21.9121 5.10921 21.1058 5.2582 20.2922L7.63472 6.94454C7.82315 5.99438 8.70101 5.31151 9.5241 5.31151H10.2413C11.0637 5.31151 11.3572 6.12584 11.2083 6.94016L10.8146 9.51971H16.0986L16.4346 7.26443C17.0721 3.43016 14.7482 0.517578 11.2733 0.517578H10.28C6.80506 0.517578 3.17966 3.31696 2.38579 7.33089L0.248091 19.2208C-0.602021 23.4144 0.651237 26.419 5.27427 26.419C5.27427 26.419 8.32708 26.6921 9.7841 23.6875C9.73809 24.9167 9.74101 26.037 9.74101 26.037L13.4285 25.945C13.4285 25.945 15.4544 13.5935 15.6524 12.5112H8.55933Z" fill="white"/>
<path d="M120.638 8.7498C120.638 7.89896 120.834 7.10873 121.226 6.37985C121.605 5.66855 122.171 5.07414 122.863 4.66064C123.544 4.24426 124.327 4.0253 125.126 4.02817C125.934 4.02817 126.687 4.23924 127.382 4.66064C128.073 5.07336 128.637 5.66811 129.013 6.37985C129.409 7.10873 129.607 7.89896 129.607 8.7498C129.611 9.56202 129.416 10.3629 129.038 11.0818C128.665 11.7999 128.106 12.4048 127.42 12.8331C126.725 13.2713 125.96 13.4904 125.126 13.4904C124.315 13.4957 123.519 13.2697 122.831 12.839C122.146 12.4119 121.588 11.8099 121.213 11.0949C120.83 10.373 120.632 9.56712 120.638 8.7498ZM121.365 8.7498C121.365 9.47429 121.533 10.1469 121.871 10.7655C122.19 11.3623 122.664 11.8623 123.242 12.2131C123.809 12.5591 124.462 12.7409 125.126 12.7382C125.804 12.7382 126.434 12.5607 127.015 12.2072C127.592 11.8538 128.064 11.3518 128.38 10.7538C128.714 10.1391 128.886 9.4494 128.88 8.7498C128.88 8.02896 128.713 7.36581 128.38 6.7589C128.066 6.16276 127.594 5.66436 127.015 5.31794C126.447 4.96785 125.793 4.7839 125.126 4.78699C124.451 4.78699 123.824 4.96227 123.242 5.31137C122.66 5.657 122.184 6.1553 121.864 6.75233C121.532 7.36529 121.36 8.05247 121.365 8.7498ZM124.196 9.22379V11.36H123.305V5.99497H125.05C125.694 5.99497 126.194 6.13373 126.548 6.41126C126.906 6.68587 127.085 7.08609 127.085 7.61266C127.085 8.1312 126.815 8.52704 126.276 8.80092C126.79 9.01199 127.049 9.44143 127.053 10.0907V10.4756C127.053 10.8386 127.089 11.0993 127.161 11.26V11.3608H126.244C126.186 11.2088 126.156 10.9393 126.156 10.5515C126.156 10.1601 126.149 9.92783 126.137 9.85626C126.07 9.45238 125.793 9.24131 125.308 9.22452L124.196 9.22379ZM124.196 8.41457H125.182C125.486 8.40654 125.73 8.33278 125.915 8.19328C126.003 8.13152 126.075 8.04904 126.123 7.95312C126.172 7.8572 126.196 7.75081 126.194 7.64334C126.194 7.3366 126.112 7.11896 125.948 6.99261C125.783 6.86188 125.49 6.79688 125.069 6.79688H124.196V8.41457ZM20.3306 1.23828H25.0522L20.8623 25.7046H16.1406L20.3306 1.23828Z" fill="white"/>
<path d="M3.13842 34.3817V33.2789H5.86915V35.8847C5.60331 36.152 5.21915 36.3879 4.71522 36.5917C4.22957 36.7917 3.70966 36.8954 3.18443 36.897C2.52932 36.897 1.95747 36.7538 1.46887 36.4668C0.98235 36.1816 0.597631 35.7509 0.368984 35.2354C0.120685 34.6886 -0.00518745 34.0941 0.000163737 33.4936C0.000163737 32.8129 0.137467 32.2082 0.411344 31.678C0.676361 31.157 1.09703 30.7315 1.61494 30.4605C2.01662 30.2436 2.51691 30.1348 3.11651 30.1348C3.89578 30.1348 4.50415 30.3057 4.94235 30.646C5.38056 30.9863 5.66174 31.4567 5.78735 32.057L4.52825 32.3031C4.45259 32.0012 4.27737 31.7336 4.03089 31.5436C3.78623 31.3573 3.48168 31.2631 3.11651 31.2631C2.56292 31.2631 2.12325 31.4472 1.79606 31.8131C1.46887 32.1782 1.30674 32.7209 1.30674 33.4403C1.30674 34.2173 1.47179 34.7987 1.80337 35.1872C2.13348 35.575 2.5673 35.7693 3.10337 35.7693C3.36921 35.7693 3.63578 35.7145 3.90235 35.6072C4.16893 35.4976 4.39752 35.3662 4.58887 35.2121V34.3824L3.13842 34.3817ZM7.02893 30.2465H8.23106V36.7859H7.02893V30.2465ZM9.18634 34.3495C9.18634 33.9332 9.28421 33.5316 9.4814 33.1408C9.67859 32.7508 9.95685 32.4543 10.3176 32.2491C10.6866 32.0416 11.1038 31.9353 11.5271 31.9409C12.2143 31.9409 12.7781 32.1746 13.2178 32.6391C13.656 33.105 13.8766 33.693 13.8766 34.4043C13.8766 35.12 13.6553 35.7145 13.2105 36.1856C12.7679 36.6567 12.2085 36.8933 11.5358 36.8933C11.1195 36.8933 10.7215 36.794 10.3432 36.5982C9.97224 36.4084 9.67066 36.1063 9.4814 35.735C9.28421 35.3559 9.18634 34.8944 9.18634 34.3495ZM10.4177 34.4167C10.4177 34.8878 10.5258 35.2464 10.739 35.4962C10.9538 35.7467 11.2174 35.8708 11.5315 35.8708C11.8455 35.8708 12.1084 35.7467 12.3217 35.4962C12.5335 35.2464 12.6401 34.8841 12.6401 34.408C12.6401 33.9442 12.5342 33.5871 12.3217 33.3373C12.1092 33.0875 11.8455 32.9626 11.5315 32.9626C11.2174 32.9626 10.9538 33.0875 10.739 33.3373C10.5258 33.5871 10.4177 33.9479 10.4177 34.4167ZM14.7676 36.7859V30.2465H15.9704V32.6018C16.3407 32.1614 16.7811 31.9416 17.2887 31.9416C17.8416 31.9416 18.3002 32.1505 18.6617 32.5675C19.0247 32.986 19.2058 33.5863 19.2058 34.3678C19.2058 35.177 19.0211 35.7993 18.6508 36.2375C18.282 36.6742 17.8328 36.8933 17.3055 36.8933C17.0455 36.8933 16.7892 36.8254 16.5372 36.6888C16.2742 36.545 16.0502 36.3395 15.8843 36.0899V36.7859H14.7676ZM15.9617 34.3145C15.9617 34.8053 16.0354 35.169 16.1837 35.4027C16.3918 35.7357 16.6686 35.9022 17.0148 35.9022C17.2799 35.9022 17.5063 35.7839 17.6926 35.5473C17.8795 35.3114 17.973 34.9389 17.973 34.4306C17.973 33.8887 17.8781 33.4987 17.6911 33.2599C17.5027 33.0203 17.261 32.8998 16.9681 32.8998C16.6789 32.8998 16.4393 33.0167 16.248 33.2504C16.0574 33.4841 15.9617 33.839 15.9617 34.3145ZM21.0726 33.4936L19.9807 33.2891C20.1042 32.8304 20.3145 32.4916 20.6139 32.2717C20.9141 32.0512 21.3589 31.9416 21.9504 31.9416C22.4858 31.9416 22.8853 32.0073 23.1482 32.1403C23.4111 32.2725 23.5952 32.4397 23.7033 32.6442C23.8099 32.8472 23.8632 33.2212 23.8632 33.766L23.85 35.2281C23.85 35.6459 23.8698 35.9526 23.9085 36.1506C23.9465 36.3477 24.018 36.5595 24.1247 36.7859H22.9342C22.89 36.6641 22.8512 36.5403 22.8181 36.4149C22.8057 36.3656 22.7918 36.3166 22.7765 36.2681C22.588 36.4643 22.3643 36.6231 22.117 36.7363C21.8833 36.8407 21.6327 36.8933 21.3676 36.8933C20.9002 36.8933 20.5307 36.7611 20.2612 36.496C19.9917 36.2309 19.8566 35.8971 19.8566 35.4925C19.8523 35.2416 19.9162 34.9943 20.0413 34.7768C20.1633 34.5665 20.3349 34.4058 20.5562 34.2948C20.7775 34.183 21.0967 34.0859 21.513 34.0026C22.0753 33.8916 22.4646 33.7901 22.6815 33.6944V33.5703C22.6815 33.3285 22.6245 33.1569 22.5106 33.0539C22.3967 32.9517 22.1812 32.9006 21.8643 32.9006C21.6503 32.9006 21.483 32.9444 21.3633 33.0313C21.2435 33.1189 21.1463 33.2738 21.0726 33.4936ZM22.6815 34.5102C22.4414 34.587 22.1973 34.6511 21.9504 34.7023C21.616 34.7775 21.3976 34.8498 21.2946 34.9207C21.1376 35.0368 21.0594 35.185 21.0594 35.3625C21.0594 35.5378 21.123 35.6912 21.2479 35.8175C21.3735 35.9453 21.5327 36.0089 21.7277 36.0089C21.9446 36.0089 22.1513 35.9358 22.3485 35.7868C22.4931 35.6744 22.5895 35.5356 22.634 35.3706C22.6662 35.2647 22.6815 35.0609 22.6815 34.7607V34.5102ZM25.0485 30.2465H26.2521V36.7859H25.0485V30.2465ZM31.3404 36.7859V31.3522H29.478V30.2465H34.4648V31.3522H32.6075V36.7859H31.3404ZM37.2561 35.2778L38.4546 35.4874C38.3012 35.9453 38.0573 36.2952 37.7243 36.5332C37.392 36.7728 36.9764 36.8933 36.4776 36.8933C35.6866 36.8933 35.1016 36.6238 34.7226 36.0856C34.4231 35.6539 34.2727 35.1098 34.2727 34.4525C34.2727 33.6681 34.4699 33.0532 34.8635 32.6084C35.2579 32.1644 35.7545 31.9416 36.3571 31.9416C37.0334 31.9416 37.5665 32.1746 37.958 32.6391C38.3487 33.105 38.5349 33.8171 38.5181 34.7775H35.5055C35.5128 35.15 35.6114 35.4392 35.7969 35.6452C35.9817 35.8526 36.2132 35.9556 36.4893 35.9556C36.6622 35.9614 36.8314 35.9043 36.9654 35.7949C37.0933 35.6882 37.1911 35.5159 37.2561 35.2778ZM37.3248 34.0107C37.316 33.6484 37.2262 33.3716 37.0545 33.1839C36.9776 33.0938 36.8817 33.0216 36.7739 32.9726C36.666 32.9235 36.5486 32.8986 36.4301 32.8998C36.1672 32.8998 35.951 32.9999 35.7801 33.1993C35.6085 33.3986 35.5245 33.6689 35.5267 34.0107H37.3248ZM43.4625 33.4483L42.2765 33.6718C42.237 33.4249 42.1457 33.2394 42.0048 33.1145C41.8638 32.9897 41.6798 32.9268 41.4548 32.9268C41.1554 32.9268 40.9158 33.0349 40.7384 33.2511C40.5594 33.4658 40.4703 33.8273 40.4703 34.3327C40.4703 34.8936 40.5609 35.2917 40.742 35.5232C40.9231 35.7554 41.1663 35.8708 41.4724 35.8708C41.7002 35.8708 41.8865 35.8036 42.0333 35.6678C42.1786 35.5327 42.2808 35.2997 42.3407 34.9703L43.5224 35.1792C43.399 35.7452 43.1631 36.1717 42.8162 36.4595C42.4678 36.7487 42.0011 36.8933 41.4161 36.8933C40.7515 36.8933 40.2213 36.6742 39.8262 36.2367C39.4311 35.7985 39.2331 35.1953 39.2331 34.4211C39.2331 33.6397 39.4318 33.0313 39.8284 32.5953C40.2257 32.1585 40.761 31.9409 41.4373 31.9409C41.9909 31.9409 42.4306 32.065 42.7585 32.3134C43.0842 32.5617 43.3201 32.94 43.4625 33.4483ZM45.5717 30.2465V32.6508C45.9595 32.1782 46.4233 31.9409 46.963 31.9409C47.2406 31.9409 47.4896 31.9942 47.7124 32.1023C47.9344 32.2089 48.1024 32.3455 48.2148 32.512C48.328 32.6793 48.4047 32.8626 48.4463 33.0649C48.488 33.2686 48.5084 33.5812 48.5084 34.007V36.7859H47.3056V34.2838C47.3056 33.7872 47.2836 33.4709 47.2376 33.338C47.1943 33.2078 47.1093 33.0954 46.9959 33.0181C46.8663 32.9357 46.7148 32.8944 46.5613 32.8998C46.3605 32.8998 46.183 32.9509 46.026 33.0517C45.8629 33.1609 45.7414 33.322 45.6813 33.5089C45.609 33.7127 45.5717 34.0143 45.5717 34.4123V36.7859H44.3703V30.2465H45.5717ZM53.8633 36.7859H52.6604V34.3685C52.6604 33.8558 52.6348 33.5257 52.583 33.3753C52.5387 33.2351 52.4509 33.1126 52.3325 33.0254C52.2107 32.9397 52.0644 32.8956 51.9154 32.8998C51.7073 32.8998 51.5211 32.9604 51.3545 33.0788C51.1917 33.1942 51.0721 33.3608 51.0149 33.552C50.9536 33.7477 50.9229 34.1107 50.9229 34.6402V36.7859H49.7193V32.0475H50.8367V32.745C51.2333 32.2089 51.7329 31.9416 52.3354 31.9416C52.6005 31.9416 52.843 31.9913 53.0628 32.0913C53.2826 32.1907 53.4484 32.3177 53.5616 32.4711C53.6741 32.6267 53.7522 32.802 53.7961 32.9984C53.8413 33.1949 53.8633 33.4761 53.8633 33.842V36.7859ZM54.8047 34.3495C54.8047 33.9332 54.9033 33.5316 55.0997 33.1408C55.2969 32.7508 55.5759 32.4543 55.9374 32.2491C56.3061 32.0416 56.7231 31.9353 57.1461 31.9409C57.8341 31.9409 58.3979 32.1746 58.8368 32.6391C59.2765 33.105 59.4956 33.693 59.4956 34.4043C59.4956 35.12 59.2751 35.7145 58.831 36.1856C58.387 36.6567 57.8283 36.8933 57.1549 36.8933C56.7386 36.8933 56.3406 36.794 55.963 36.5982C55.5914 36.4088 55.2892 36.1066 55.0997 35.735C54.9033 35.3559 54.8047 34.8944 54.8047 34.3495ZM56.0382 34.4167C56.0382 34.8878 56.1441 35.2464 56.3588 35.4962C56.5728 35.7467 56.8365 35.8708 57.1505 35.8708C57.4645 35.8708 57.7275 35.7467 57.94 35.4962C58.1525 35.2464 58.2591 34.8841 58.2591 34.408C58.2591 33.9442 58.1525 33.5871 57.94 33.3373C57.7282 33.0875 57.4645 32.9626 57.1505 32.9626C56.8365 32.9626 56.5735 33.0875 56.3588 33.3373C56.1441 33.5871 56.0382 33.9479 56.0382 34.4167ZM60.4377 30.2465H61.6406V36.7859H60.4385L60.4377 30.2465ZM62.5952 34.3495C62.5952 33.9332 62.693 33.5316 62.8902 33.1408C63.0734 32.7666 63.3647 32.4559 63.7265 32.2491C64.0957 32.0416 64.5131 31.9353 64.9366 31.9409C65.6231 31.9409 66.1877 32.1746 66.6266 32.6391C67.0663 33.105 67.2861 33.693 67.2861 34.4043C67.2861 35.12 67.0641 35.7145 66.6208 36.1856C66.1767 36.6567 65.6173 36.8933 64.9447 36.8933C64.5284 36.8933 64.1303 36.794 63.752 36.5982C63.381 36.4084 63.0794 36.1063 62.8902 35.735C62.693 35.3559 62.5952 34.8944 62.5952 34.3495ZM63.8272 34.4167C63.8272 34.8878 63.9346 35.2464 64.1479 35.4962C64.3618 35.7467 64.6262 35.8708 64.9403 35.8708C65.2543 35.8708 65.518 35.7467 65.7305 35.4962C65.943 35.2464 66.0489 34.8841 66.0489 34.408C66.0489 33.9442 65.943 33.5871 65.7305 33.3373C65.518 33.0875 65.2543 32.9626 64.9403 32.9626C64.6262 32.9626 64.3618 33.0875 64.1479 33.3373C63.9346 33.5871 63.8272 33.9479 63.8272 34.4167ZM68.1158 37.0978L69.4903 37.2709C69.5122 37.4389 69.5655 37.5528 69.6488 37.6156C69.762 37.7047 69.9424 37.7493 70.1885 37.7493C70.5011 37.7493 70.7362 37.7003 70.8932 37.6017C71.007 37.5264 71.0918 37.4147 71.1335 37.2848C71.1701 37.1811 71.189 36.9897 71.189 36.71V36.0184C70.8297 36.5296 70.3762 36.7852 69.8284 36.7852C69.2171 36.7852 68.7336 36.5172 68.3772 35.9782C68.0968 35.5524 67.958 35.0236 67.958 34.3904C67.958 33.5966 68.1406 32.9897 68.5072 32.5704C68.8739 32.1512 69.3303 31.9409 69.8752 31.9409C70.4375 31.9409 70.902 32.1987 71.2665 32.7129V32.0482H72.3926V36.2995C72.3926 36.859 72.3474 37.276 72.259 37.5528C72.1713 37.8296 72.0472 38.0465 71.8872 38.2043C71.7266 38.3613 71.514 38.4854 71.2467 38.5738C70.9809 38.6636 70.6435 38.7082 70.2352 38.7082C69.464 38.7082 68.9184 38.5709 68.5956 38.2948C68.4409 38.1689 68.317 38.0095 68.2332 37.8285C68.1494 37.6475 68.108 37.4498 68.1121 37.2504C68.1121 37.2074 68.1136 37.1577 68.1158 37.0978ZM69.1908 34.3189C69.1908 34.8221 69.2836 35.1894 69.4706 35.4224C69.6583 35.6568 69.8868 35.773 70.1622 35.773C70.4558 35.773 70.7041 35.6532 70.9064 35.4144C71.1094 35.1741 71.2109 34.8199 71.2109 34.3495C71.2109 33.8595 71.1138 33.495 70.9195 33.257C70.8333 33.1442 70.7218 33.0532 70.5941 32.9912C70.4665 32.9292 70.326 32.8979 70.1841 32.8998C69.8956 32.8998 69.6583 33.0167 69.4706 33.2504C69.2836 33.4841 69.1908 33.8398 69.1908 34.3189ZM73.0134 32.0475H74.293L75.3804 35.4115L76.4409 32.0475H77.6876L76.0816 36.607L75.7953 37.4323C75.6894 37.7098 75.59 37.9194 75.4936 38.0662C75.4062 38.2032 75.2943 38.3231 75.1635 38.4197C75.0253 38.5178 74.8704 38.5901 74.7063 38.633C74.5245 38.6841 74.3207 38.7082 74.0921 38.7082C73.8613 38.7082 73.6342 38.6834 73.4115 38.633L73.3048 37.6499C73.4933 37.6894 73.6627 37.7091 73.8139 37.7091C74.0936 37.7091 74.3003 37.6229 74.4347 37.4535C74.5683 37.2818 74.6706 37.0635 74.7421 36.7998L73.0134 32.0475ZM84.9165 34.3817L86.1449 34.787C85.9565 35.5013 85.6439 36.0308 85.2057 36.377C84.7675 36.7239 84.2117 36.897 83.539 36.897C82.705 36.897 82.0207 36.6004 81.4846 36.0074C80.9471 35.4136 80.6798 34.6022 80.6798 33.5747C80.6798 32.4865 80.9485 31.6407 81.489 31.0382C82.0287 30.4364 82.7371 30.1348 83.6157 30.1348C84.3833 30.1348 85.0063 30.3714 85.4861 30.8447C85.7717 31.1236 85.9849 31.5253 86.1281 32.0482L84.8748 32.3608C84.7996 32.0212 84.6462 31.7547 84.4096 31.5575C84.1744 31.3625 83.8881 31.2624 83.5515 31.2624C83.087 31.2624 82.7086 31.4377 82.4202 31.7853C82.1295 32.133 81.9849 32.6968 81.9849 33.4768C81.9849 34.3021 82.128 34.8915 82.4129 35.242C82.6984 35.5926 83.0694 35.7686 83.5259 35.7686C83.8626 35.7686 84.1525 35.6568 84.395 35.4341C84.6367 35.2113 84.8113 34.8608 84.9165 34.3817ZM86.9453 34.3495C86.9453 33.9332 87.0432 33.5316 87.2404 33.1408C87.4376 32.7508 87.7166 32.4543 88.0774 32.2491C88.4463 32.0416 88.8635 31.9353 89.2868 31.9409C89.974 31.9409 90.5371 32.1746 90.9768 32.6391C91.4165 33.105 91.6363 33.693 91.6363 34.4043C91.6363 35.12 91.4143 35.7145 90.9709 36.1856C90.5276 36.6567 89.9689 36.8933 89.2956 36.8933C88.8802 36.8933 88.4711 36.792 88.1036 36.5982C87.732 36.4088 87.4298 36.1066 87.2404 35.735C87.0432 35.3559 86.9453 34.8944 86.9453 34.3495ZM88.1781 34.4167C88.1781 34.8878 88.2855 35.2464 88.4995 35.4962C88.712 35.7467 88.9764 35.8708 89.2912 35.8708C89.6045 35.8708 89.8681 35.7467 90.0807 35.4962C90.2932 35.2464 90.3991 34.8841 90.3991 34.408C90.3991 33.9442 90.2932 33.5871 90.0807 33.3373C89.8681 33.0875 89.6045 32.9626 89.2912 32.9626C88.9764 32.9626 88.712 33.0875 88.4995 33.3373C88.2855 33.5871 88.1781 33.9479 88.1781 34.4167ZM92.4886 32.0475H93.5965V32.6953C93.9924 32.1921 94.4649 31.9416 95.0134 31.9416C95.304 31.9416 95.5575 32.0044 95.7707 32.1286C95.9847 32.2527 96.16 32.4426 96.2973 32.6953C96.4967 32.4426 96.7129 32.2535 96.9437 32.1286C97.1744 32.0044 97.422 31.9416 97.6842 31.9416C98.018 31.9416 98.2999 32.0117 98.5314 32.1534C98.7629 32.2951 98.9353 32.5018 99.0499 32.7757C99.1325 32.978 99.1741 33.3052 99.1741 33.7565V36.7859H97.9705V34.0779C97.9705 33.6082 97.9289 33.3052 97.8471 33.1679C97.7353 32.9897 97.5644 32.8998 97.3329 32.8998C97.1642 32.8998 97.0065 32.9539 96.8582 33.0612C96.7092 33.1679 96.6026 33.3241 96.5376 33.5316C96.4719 33.7382 96.4383 34.0647 96.4383 34.5102V36.7859H95.2361V34.1896C95.2361 33.7295 95.2142 33.4315 95.1719 33.2971C95.1392 33.1789 95.0696 33.0742 94.9732 32.9984C94.8826 32.9327 94.7607 32.8998 94.6066 32.8998C94.4218 32.8998 94.2538 32.9524 94.1056 33.0568C93.9524 33.1676 93.8404 33.3261 93.7871 33.5075C93.7229 33.7032 93.6907 34.0289 93.6907 34.4839V36.7859H92.4886V32.0475ZM100.338 32.0482H101.459V32.745C101.605 32.5069 101.802 32.3141 102.05 32.1651C102.298 32.0154 102.574 31.9423 102.875 31.9423C103.404 31.9423 103.852 32.1578 104.221 32.5887C104.588 33.0196 104.772 33.6199 104.772 34.3912C104.772 35.1814 104.587 35.7963 104.217 36.2353C103.845 36.6735 103.395 36.894 102.868 36.894C102.617 36.894 102.389 36.8414 102.185 36.737C101.981 36.6333 101.766 36.4544 101.54 36.2017V38.5884H100.338V32.0482ZM101.527 34.3379C101.527 34.8695 101.629 35.2625 101.832 35.5173C102.035 35.7722 102.281 35.8986 102.572 35.8986C102.852 35.8986 103.085 35.7817 103.271 35.548C103.455 35.315 103.548 34.9331 103.548 34.3992C103.548 33.9033 103.452 33.5345 103.261 33.2935C103.07 33.0525 102.834 32.9327 102.55 32.9327C102.257 32.9327 102.013 33.0495 101.819 33.2869C101.624 33.5228 101.527 33.8734 101.527 34.3379ZM106.626 33.4936L105.535 33.2891C105.658 32.8304 105.868 32.4916 106.169 32.2717C106.468 32.0512 106.913 31.9416 107.504 31.9416C108.04 31.9416 108.44 32.0073 108.703 32.1403C108.965 32.2725 109.15 32.4397 109.256 32.6442C109.364 32.8472 109.416 33.2212 109.416 33.766L109.405 35.2281C109.405 35.6459 109.424 35.9526 109.462 36.1506C109.5 36.3477 109.572 36.5595 109.678 36.7859H108.489C108.444 36.6642 108.406 36.5404 108.373 36.4149C108.352 36.3412 108.338 36.2922 108.33 36.2681C108.124 36.4763 107.905 36.6333 107.672 36.7363C107.436 36.8412 107.18 36.8947 106.922 36.8933C106.453 36.8933 106.085 36.7611 105.815 36.496C105.546 36.2309 105.41 35.8971 105.41 35.4925C105.41 35.2245 105.472 34.9857 105.594 34.7768C105.717 34.5665 105.889 34.4058 106.112 34.2948C106.331 34.183 106.651 34.0859 107.067 34.0026C107.629 33.8916 108.018 33.7901 108.235 33.6944V33.5703C108.235 33.3285 108.178 33.1569 108.064 33.0539C107.951 32.9517 107.734 32.9006 107.418 32.9006C107.204 32.9006 107.038 32.9444 106.917 33.0313C106.797 33.1189 106.7 33.2738 106.626 33.4936ZM108.235 34.5102C107.995 34.5871 107.751 34.6512 107.504 34.7023C107.171 34.7775 106.951 34.8498 106.849 34.9207C106.691 35.0368 106.614 35.185 106.614 35.3625C106.614 35.5378 106.676 35.6912 106.802 35.8175C106.864 35.8808 106.939 35.9305 107.022 35.9634C107.104 35.9963 107.193 36.0118 107.282 36.0089C107.498 36.0089 107.706 35.9358 107.902 35.7868C108.048 35.6744 108.143 35.5356 108.189 35.3706C108.219 35.2647 108.235 35.0609 108.235 34.7607V34.5102ZM114.738 36.7859H113.535V34.3685C113.535 33.8558 113.508 33.5257 113.457 33.3753C113.413 33.2348 113.326 33.1122 113.207 33.0254C113.085 32.9396 112.939 32.8955 112.79 32.8998C112.581 32.8998 112.395 32.9604 112.23 33.0788C112.066 33.194 111.946 33.3606 111.889 33.552C111.828 33.7477 111.797 34.1107 111.797 34.6402V36.7859H110.594V32.0475H111.712V32.745C112.108 32.2089 112.607 31.9416 113.21 31.9416C113.474 31.9416 113.717 31.9913 113.937 32.0913C114.157 32.1907 114.323 32.3177 114.436 32.4711C114.548 32.6267 114.627 32.802 114.671 32.9984C114.715 33.1949 114.738 33.4761 114.738 33.842V36.7859ZM115.388 32.0475H116.667L117.755 35.4115L118.816 32.0475H120.062L118.456 36.607L118.17 37.4323C118.064 37.7098 117.964 37.9194 117.868 38.0662C117.772 38.2123 117.663 38.3291 117.538 38.4197C117.414 38.511 117.262 38.5818 117.081 38.633C116.899 38.6841 116.695 38.7082 116.466 38.7082C116.236 38.7082 116.008 38.6834 115.786 38.633L115.678 37.6499C115.867 37.6894 116.037 37.7091 116.188 37.7091C116.468 37.7091 116.674 37.6229 116.809 37.4535C116.942 37.2818 117.045 37.0635 117.116 36.7998L115.388 32.0475Z" fill="#77787B"/>
<path d="M0 28.7937H120.062V27.7617H0V28.7937Z" fill="white"/>
</g>
<defs>
<clipPath id="clip0_1235_2468">
<rect width="130" height="38.7079" fill="white"/>
</clipPath>
</defs>
</svg>
