<svg width="24" height="16" viewBox="0 0 24 16" fill="none" xmlns="http://www.w3.org/2000/svg">
<g clip-path="url(#clip0_1173_1705)">
<path d="M0 0H24V16H0V0Z" fill="white"/>
<path d="M0 0H24V1.23041H0V0ZM0 2.46082H24V3.69123H0V2.46082ZM0 4.92164H24V6.15205H0V4.92164ZM0 7.38246H24V8.61287H0V7.38246ZM0 9.84795H24V11.0784H0V9.84795ZM0 12.3088H24V13.5392H0V12.3088ZM0 14.7696H24V16H0V14.7696Z" fill="#D80027"/>
<path d="M0 0H12V8.61287H0V0Z" fill="#2E52B2"/>
<path d="M2.23611 6.49894L2.04898 5.90011L1.84313 6.49894H1.22559L1.72617 6.85917L1.53904 7.458L2.04898 7.08841L2.54488 7.458L2.35307 6.85917L2.86301 6.49894H2.23611ZM4.87003 6.49894L4.67822 5.90011L4.48173 6.49894H3.86418L4.36477 6.85917L4.17763 7.458L4.67822 7.08841L5.18348 7.458L4.99635 6.85917L5.49693 6.49894H4.87003ZM7.51331 6.49894L7.31214 5.90011L7.125 6.49894H6.49342L7.00804 6.85917L6.81155 7.458L7.31214 7.08841L7.82676 7.458L7.63026 6.85917L8.13085 6.49894H7.51331ZM10.1425 6.49894L9.95541 5.90011L9.75892 6.49894H9.1367L9.64196 6.85917L9.45483 7.458L9.95541 7.08841L10.4607 7.458L10.2595 6.85917L10.7741 6.49894H10.1425ZM4.67822 3.5235L4.48173 4.12233H3.86418L4.36477 4.49192L4.17763 5.0814L4.67822 4.71648L5.18348 5.0814L4.99635 4.49192L5.49693 4.12233H4.87003L4.67822 3.5235ZM2.04898 3.5235L1.84313 4.12233H1.22559L1.72617 4.49192L1.53904 5.0814L2.04898 4.71648L2.54488 5.0814L2.35307 4.49192L2.86301 4.12233H2.23611L2.04898 3.5235ZM7.31214 3.5235L7.125 4.12233H6.49342L7.00804 4.49192L6.81155 5.0814L7.31214 4.71648L7.82676 5.0814L7.63026 4.49192L8.13085 4.12233H7.51331L7.31214 3.5235ZM9.95541 3.5235L9.75892 4.12233H9.1367L9.64196 4.49192L9.45483 5.0814L9.95541 4.71648L10.4607 5.0814L10.2595 4.49192L10.7741 4.12233H10.1425L9.95541 3.5235ZM2.04898 1.15625L1.84313 1.74572H1.22559L1.72617 2.11531L1.53904 2.70947L2.04898 2.33988L2.54488 2.70947L2.35307 2.11531L2.86301 1.74572H2.23611L2.04898 1.15625ZM4.67822 1.15625L4.48173 1.74572H3.86418L4.36477 2.11531L4.17763 2.70947L4.67822 2.33988L5.18348 2.70947L4.99635 2.11531L5.49693 1.74572H4.87003L4.67822 1.15625ZM7.31214 1.15625L7.125 1.74572H6.49342L7.00804 2.11531L6.81155 2.70947L7.31214 2.33988L7.82676 2.70947L7.63026 2.11531L8.13085 1.74572H7.51331L7.31214 1.15625ZM9.95541 1.15625L9.75892 1.74572H9.1367L9.64196 2.11531L9.45483 2.70947L9.95541 2.33988L10.4607 2.70947L10.2595 2.11531L10.7741 1.74572H10.1425L9.95541 1.15625Z" fill="white"/>
</g>
<defs>
<clipPath id="clip0_1173_1705">
<rect width="24" height="16" rx="1.6" fill="white"/>
</clipPath>
</defs>
</svg>
